<svg xmlns="http://www.w3.org/2000/svg" width="892" height="192" viewBox="0 0 892 192">
<rect width="892" height="192" fill="#0d1117" rx="6"/>
<text x="446" y="18" text-anchor="middle" fill="#FFCB05" font-family="monospace" font-size="10">⚡ Tall Grass Activity ⚡</text>
<text x="2" y="57" fill="#8b949e" font-family="monospace" font-size="10">Mon</text>
<text x="2" y="89" fill="#8b949e" font-family="monospace" font-size="10">Wed</text>
<text x="2" y="121" fill="#8b949e" font-family="monospace" font-size="10">Fri</text>
<text x="40" y="24" fill="#8b949e" font-family="monospace" font-size="10">Jan</text>
<text x="104" y="24" fill="#8b949e" font-family="monospace" font-size="10">Feb</text>
<text x="168" y="24" fill="#8b949e" font-family="monospace" font-size="10">Mar</text>
<text x="232" y="24" fill="#8b949e" font-family="monospace" font-size="10">Apr</text>
<text x="312" y="24" fill="#8b949e" font-family="monospace" font-size="10">May</text>
<text x="376" y="24" fill="#8b949e" font-family="monospace" font-size="10">Jun</text>
<text x="440" y="24" fill="#8b949e" font-family="monospace" font-size="10">Jul</text>
<text x="520" y="24" fill="#8b949e" font-family="monospace" font-size="10">Aug</text>
<text x="584" y="24" fill="#8b949e" font-family="monospace" font-size="10">Sep</text>
<text x="648" y="24" fill="#8b949e" font-family="monospace" font-size="10">Oct</text>
<text x="728" y="24" fill="#8b949e" font-family="monospace" font-size="10">Nov</text>
<text x="792" y="24" fill="#8b949e" font-family="monospace" font-size="10">Dec</text>
<rect x="40" y="30" width="13" height="13" rx="2" fill="#FFBF00"/>
<rect x="40" y="46" width="13" height="13" rx="2" fill="#161b22"/>
<rect x="40" y="62" width="13" height="13" rx="2" fill="#161b22"/>
<rect x="40" y="78" width="13" height="13" rx="2" fill="#161b22"/>
<rect x="40" y="94" width="13" height="13" rx="2" fill="#FF8C00"/>
<rect x="40" y="110" width="13" height="13" rx="2" fill="#FFBF00"/>
<rect x="40" y="126" width="13" height="13" rx="2" fill="#FF4500"/>
<rect x="56" y="30" width="13" height="13" rx="2" fill="#161b22"/>
<rect x="56" y="46" width="13" height="13" rx="2" fill="#161b22"/>
<rect x="56" y="62" width="13" height="13" rx="2" fill="#161b22"/>
<rect x="56" y="78" width="13" height="13" rx="2" fill="#161b22"/>
<rect x="56" y="94" width="13" height="13" rx="2" fill="#FFBF00"/>
<rect x="56" y="110" width="13" height="13" rx="2" fill="#161b22"/>
<rect x="56" y="126" width="13" height="13" rx="2" fill="#161b22"/>
<rect x="72" y="30" width="13" height="13" rx="2" fill="#FFBF00"/>
<rect x="72" y="46" width="13" height="13" rx="2" fill="#FFBF00"/>
<rect x="72" y="62" width="13" height="13" rx="2" fill="#161b22"/>
<rect x="72" y="78" width="13" height="13" rx="2" fill="#FFBF00"/>
<rect x="72" y="94" width="13" height="13" rx="2" fill="#FF8C00"/>
<rect x="72" y="110" width="13" height="13" rx="2" fill="#161b22"/>
<rect x="72" y="126" width="13" height="13" rx="2" fill="#FF8C00"/>
<rect x="88" y="30" width="13" height="13" rx="2" fill="#FFBF00"/>
<rect x="88" y="46" width="13" height="13" rx="2" fill="#161b22"/>
<rect x="88" y="62" width="13" height="13" rx="2" fill="#161b22"/>
<rect x="88" y="78" width="13" height="13" rx="2" fill="#FF0000"/>
<rect x="88" y="94" width="13" height="13" rx="2" fill="#161b22"/>
<rect x="88" y="110" width="13" height="13" rx="2" fill="#161b22"/>
<rect x="88" y="126" width="13" height="13" rx="2" fill="#161b22"/>
<rect x="104" y="30" width="13" height="13" rx="2" fill="#FF8C00"/>
<rect x="104" y="46" width="13" height="13" rx="2" fill="#FFBF00"/>
<rect x="104" y="62" width="13" height="13" rx="2" fill="#FF8C00"/>
<rect x="104" y="78" width="13" height="13" rx="2" fill="#FF8C00"/>
<rect x="104" y="94" width="13" height="13" rx="2" fill="#FFBF00"/>
<rect x="104" y="110" width="13" height="13" rx="2" fill="#FF0000"/>
<rect x="104" y="126" width="13" height="13" rx="2" fill="#161b22"/>
<rect x="120" y="30" width="13" height="13" rx="2" fill="#FFBF00"/>
<rect x="120" y="46" width="13" height="13" rx="2" fill="#FF8C00"/>
<rect x="120" y="62" width="13" height="13" rx="2" fill="#FFBF00"/>
<rect x="120" y="78" width="13" height="13" rx="2" fill="#FF4500"/>
<rect x="120" y="94" width="13" height="13" rx="2" fill="#FFBF00"/>
<rect x="120" y="110" width="13" height="13" rx="2" fill="#FF8C00"/>
<rect x="120" y="126" width="13" height="13" rx="2" fill="#161b22"/>
<rect x="136" y="30" width="13" height="13" rx="2" fill="#161b22"/>
<rect x="136" y="46" width="13" height="13" rx="2" fill="#161b22"/>
<rect x="136" y="62" width="13" height="13" rx="2" fill="#161b22"/>
<rect x="136" y="78" width="13" height="13" rx="2" fill="#161b22"/>
<rect x="136" y="94" width="13" height="13" rx="2" fill="#161b22"/>
<rect x="136" y="110" width="13" height="13" rx="2" fill="#161b22"/>
<rect x="136" y="126" width="13" height="13" rx="2" fill="#FFBF00"/>
<rect x="152" y="30" width="13" height="13" rx="2" fill="#161b22"/>
<rect x="152" y="46" width="13" height="13" rx="2" fill="#161b22"/>
<rect x="152" y="62" width="13" height="13" rx="2" fill="#161b22"/>
<rect x="152" y="78" width="13" height="13" rx="2" fill="#161b22"/>
<rect x="152" y="94" width="13" height="13" rx="2" fill="#FF4500"/>
<rect x="152" y="110" width="13" height="13" rx="2" fill="#FFBF00"/>
<rect x="152" y="126" width="13" height="13" rx="2" fill="#FFBF00"/>
<rect x="168" y="30" width="13" height="13" rx="2" fill="#161b22"/>
<rect x="168" y="46" width="13" height="13" rx="2" fill="#FF8C00"/>
<rect x="168" y="62" width="13" height="13" rx="2" fill="#161b22"/>
<rect x="168" y="78" width="13" height="13" rx="2" fill="#161b22"/>
<rect x="168" y="94" width="13" height="13" rx="2" fill="#FF0000"/>
<rect x="168" y="110" width="13" height="13" rx="2" fill="#FFBF00"/>
<rect x="168" y="126" width="13" height="13" rx="2" fill="#FFBF00"/>
<rect x="184" y="30" width="13" height="13" rx="2" fill="#FFBF00"/>
<rect x="184" y="46" width="13" height="13" rx="2" fill="#FF8C00"/>
<rect x="184" y="62" width="13" height="13" rx="2" fill="#FF8C00"/>
<rect x="184" y="78" width="13" height="13" rx="2" fill="#161b22"/>
<rect x="184" y="94" width="13" height="13" rx="2" fill="#161b22"/>
<rect x="184" y="110" width="13" height="13" rx="2" fill="#161b22"/>
<rect x="184" y="126" width="13" height="13" rx="2" fill="#161b22"/>
<rect x="200" y="30" width="13" height="13" rx="2" fill="#161b22"/>
<rect x="200" y="46" width="13" height="13" rx="2" fill="#FF4500"/>
<rect x="200" y="62" width="13" height="13" rx="2" fill="#FF4500"/>
<rect x="200" y="78" width="13" height="13" rx="2" fill="#161b22"/>
<rect x="200" y="94" width="13" height="13" rx="2" fill="#FFBF00"/>
<rect x="200" y="110" width="13" height="13" rx="2" fill="#161b22"/>
<rect x="200" y="126" width="13" height="13" rx="2" fill="#FF4500"/>
<rect x="216" y="30" width="13" height="13" rx="2" fill="#161b22"/>
<rect x="216" y="46" width="13" height="13" rx="2" fill="#161b22"/>
<rect x="216" y="62" width="13" height="13" rx="2" fill="#161b22"/>
<rect x="216" y="78" width="13" height="13" rx="2" fill="#FFBF00"/>
<rect x="216" y="94" width="13" height="13" rx="2" fill="#161b22"/>
<rect x="216" y="110" width="13" height="13" rx="2" fill="#FFBF00"/>
<rect x="216" y="126" width="13" height="13" rx="2" fill="#FF4500"/>
<rect x="232" y="30" width="13" height="13" rx="2" fill="#161b22"/>
<rect x="232" y="46" width="13" height="13" rx="2" fill="#161b22"/>
<rect x="232" y="62" width="13" height="13" rx="2" fill="#FF0000"/>
<rect x="232" y="78" width="13" height="13" rx="2" fill="#FFBF00"/>
<rect x="232" y="94" width="13" height="13" rx="2" fill="#161b22"/>
<rect x="232" y="110" width="13" height="13" rx="2" fill="#161b22"/>
<rect x="232" y="126" width="13" height="13" rx="2" fill="#161b22"/>
<rect x="248" y="30" width="13" height="13" rx="2" fill="#FFBF00"/>
<rect x="248" y="46" width="13" height="13" rx="2" fill="#FF8C00"/>
<rect x="248" y="62" width="13" height="13" rx="2" fill="#161b22"/>
<rect x="248" y="78" width="13" height="13" rx="2" fill="#161b22"/>
<rect x="248" y="94" width="13" height="13" rx="2" fill="#161b22"/>
<rect x="248" y="110" width="13" height="13" rx="2" fill="#FF0000"/>
<rect x="248" y="126" width="13" height="13" rx="2" fill="#FFBF00"/>
<rect x="264" y="30" width="13" height="13" rx="2" fill="#FF0000"/>
<rect x="264" y="46" width="13" height="13" rx="2" fill="#FF4500"/>
<rect x="264" y="62" width="13" height="13" rx="2" fill="#161b22"/>
<rect x="264" y="78" width="13" height="13" rx="2" fill="#FF8C00"/>
<rect x="264" y="94" width="13" height="13" rx="2" fill="#FFBF00"/>
<rect x="264" y="110" width="13" height="13" rx="2" fill="#FFBF00"/>
<rect x="264" y="126" width="13" height="13" rx="2" fill="#161b22"/>
<rect x="280" y="30" width="13" height="13" rx="2" fill="#FFBF00"/>
<rect x="280" y="46" width="13" height="13" rx="2" fill="#161b22"/>
<rect x="280" y="62" width="13" height="13" rx="2" fill="#161b22"/>
<rect x="280" y="78" width="13" height="13" rx="2" fill="#161b22"/>
<rect x="280" y="94" width="13" height="13" rx="2" fill="#FF0000"/>
<rect x="280" y="110" width="13" height="13" rx="2" fill="#FF4500"/>
<rect x="280" y="126" width="13" height="13" rx="2" fill="#161b22"/>
<rect x="296" y="30" width="13" height="13" rx="2" fill="#FFBF00"/>
<rect x="296" y="46" width="13" height="13" rx="2" fill="#161b22"/>
<rect x="296" y="62" width="13" height="13" rx="2" fill="#FF4500"/>
<rect x="296" y="78" width="13" height="13" rx="2" fill="#FF4500"/>
<rect x="296" y="94" width="13" height="13" rx="2" fill="#161b22"/>
<rect x="296" y="110" width="13" height="13" rx="2" fill="#FFBF00"/>
<rect x="296" y="126" width="13" height="13" rx="2" fill="#FFBF00"/>
<rect x="312" y="30" width="13" height="13" rx="2" fill="#161b22"/>
<rect x="312" y="46" width="13" height="13" rx="2" fill="#FF8C00"/>
<rect x="312" y="62" width="13" height="13" rx="2" fill="#FFBF00"/>
<rect x="312" y="78" width="13" height="13" rx="2" fill="#FF8C00"/>
<rect x="312" y="94" width="13" height="13" rx="2" fill="#FFBF00"/>
<rect x="312" y="110" width="13" height="13" rx="2" fill="#161b22"/>
<rect x="312" y="126" width="13" height="13" rx="2" fill="#161b22"/>
<rect x="328" y="30" width="13" height="13" rx="2" fill="#161b22"/>
<rect x="328" y="46" width="13" height="13" rx="2" fill="#FF4500"/>
<rect x="328" y="62" width="13" height="13" rx="2" fill="#FF4500"/>
<rect x="328" y="78" width="13" height="13" rx="2" fill="#FF8C00"/>
<rect x="328" y="94" width="13" height="13" rx="2" fill="#161b22"/>
<rect x="328" y="110" width="13" height="13" rx="2" fill="#161b22"/>
<rect x="328" y="126" width="13" height="13" rx="2" fill="#FF4500"/>
<rect x="344" y="30" width="13" height="13" rx="2" fill="#FF4500"/>
<rect x="344" y="46" width="13" height="13" rx="2" fill="#161b22"/>
<rect x="344" y="62" width="13" height="13" rx="2" fill="#161b22"/>
<rect x="344" y="78" width="13" height="13" rx="2" fill="#161b22"/>
<rect x="344" y="94" width="13" height="13" rx="2" fill="#FF8C00"/>
<rect x="344" y="110" width="13" height="13" rx="2" fill="#FF8C00"/>
<rect x="344" y="126" width="13" height="13" rx="2" fill="#161b22"/>
<rect x="360" y="30" width="13" height="13" rx="2" fill="#161b22"/>
<rect x="360" y="46" width="13" height="13" rx="2" fill="#FFBF00"/>
<rect x="360" y="62" width="13" height="13" rx="2" fill="#161b22"/>
<rect x="360" y="78" width="13" height="13" rx="2" fill="#FF4500"/>
<rect x="360" y="94" width="13" height="13" rx="2" fill="#161b22"/>
<rect x="360" y="110" width="13" height="13" rx="2" fill="#161b22"/>
<rect x="360" y="126" width="13" height="13" rx="2" fill="#FFBF00"/>
<rect x="376" y="30" width="13" height="13" rx="2" fill="#FF8C00"/>
<rect x="376" y="46" width="13" height="13" rx="2" fill="#161b22"/>
<rect x="376" y="62" width="13" height="13" rx="2" fill="#161b22"/>
<rect x="376" y="78" width="13" height="13" rx="2" fill="#FF0000"/>
<rect x="376" y="94" width="13" height="13" rx="2" fill="#FFBF00"/>
<rect x="376" y="110" width="13" height="13" rx="2" fill="#161b22"/>
<rect x="376" y="126" width="13" height="13" rx="2" fill="#FFBF00"/>
<rect x="392" y="30" width="13" height="13" rx="2" fill="#161b22"/>
<rect x="392" y="46" width="13" height="13" rx="2" fill="#161b22"/>
<rect x="392" y="62" width="13" height="13" rx="2" fill="#161b22"/>
<rect x="392" y="78" width="13" height="13" rx="2" fill="#FFBF00"/>
<rect x="392" y="94" width="13" height="13" rx="2" fill="#161b22"/>
<rect x="392" y="110" width="13" height="13" rx="2" fill="#161b22"/>
<rect x="392" y="126" width="13" height="13" rx="2" fill="#161b22"/>
<rect x="408" y="30" width="13" height="13" rx="2" fill="#FFBF00"/>
<rect x="408" y="46" width="13" height="13" rx="2" fill="#161b22"/>
<rect x="408" y="62" width="13" height="13" rx="2" fill="#FF4500"/>
<rect x="408" y="78" width="13" height="13" rx="2" fill="#FF4500"/>
<rect x="408" y="94" width="13" height="13" rx="2" fill="#161b22"/>
<rect x="408" y="110" width="13" height="13" rx="2" fill="#161b22"/>
<rect x="408" y="126" width="13" height="13" rx="2" fill="#FFBF00"/>
<rect x="424" y="30" width="13" height="13" rx="2" fill="#161b22"/>
<rect x="424" y="46" width="13" height="13" rx="2" fill="#161b22"/>
<rect x="424" y="62" width="13" height="13" rx="2" fill="#FF4500"/>
<rect x="424" y="78" width="13" height="13" rx="2" fill="#FFBF00"/>
<rect x="424" y="94" width="13" height="13" rx="2" fill="#161b22"/>
<rect x="424" y="110" width="13" height="13" rx="2" fill="#FF8C00"/>
<rect x="424" y="126" width="13" height="13" rx="2" fill="#FF8C00"/>
<rect x="440" y="30" width="13" height="13" rx="2" fill="#161b22"/>
<rect x="440" y="46" width="13" height="13" rx="2" fill="#161b22"/>
<rect x="440" y="62" width="13" height="13" rx="2" fill="#161b22"/>
<rect x="440" y="78" width="13" height="13" rx="2" fill="#161b22"/>
<rect x="440" y="94" width="13" height="13" rx="2" fill="#161b22"/>
<rect x="440" y="110" width="13" height="13" rx="2" fill="#FF8C00"/>
<rect x="440" y="126" width="13" height="13" rx="2" fill="#FFBF00"/>
<rect x="456" y="30" width="13" height="13" rx="2" fill="#FF0000"/>
<rect x="456" y="46" width="13" height="13" rx="2" fill="#161b22"/>
<rect x="456" y="62" width="13" height="13" rx="2" fill="#161b22"/>
<rect x="456" y="78" width="13" height="13" rx="2" fill="#161b22"/>
<rect x="456" y="94" width="13" height="13" rx="2" fill="#FF4500"/>
<rect x="456" y="110" width="13" height="13" rx="2" fill="#161b22"/>
<rect x="456" y="126" width="13" height="13" rx="2" fill="#161b22"/>
<rect x="472" y="30" width="13" height="13" rx="2" fill="#161b22"/>
<rect x="472" y="46" width="13" height="13" rx="2" fill="#161b22"/>
<rect x="472" y="62" width="13" height="13" rx="2" fill="#161b22"/>
<rect x="472" y="78" width="13" height="13" rx="2" fill="#161b22"/>
<rect x="472" y="94" width="13" height="13" rx="2" fill="#FF4500"/>
<rect x="472" y="110" width="13" height="13" rx="2" fill="#161b22"/>
<rect x="472" y="126" width="13" height="13" rx="2" fill="#FF4500"/>
<rect x="488" y="30" width="13" height="13" rx="2" fill="#FFBF00"/>
<rect x="488" y="46" width="13" height="13" rx="2" fill="#161b22"/>
<rect x="488" y="62" width="13" height="13" rx="2" fill="#FF0000"/>
<rect x="488" y="78" width="13" height="13" rx="2" fill="#FF8C00"/>
<rect x="488" y="94" width="13" height="13" rx="2" fill="#FF0000"/>
<rect x="488" y="110" width="13" height="13" rx="2" fill="#FF4500"/>
<rect x="488" y="126" width="13" height="13" rx="2" fill="#FF8C00"/>
<rect x="504" y="30" width="13" height="13" rx="2" fill="#161b22"/>
<rect x="504" y="46" width="13" height="13" rx="2" fill="#161b22"/>
<rect x="504" y="62" width="13" height="13" rx="2" fill="#161b22"/>
<rect x="504" y="78" width="13" height="13" rx="2" fill="#161b22"/>
<rect x="504" y="94" width="13" height="13" rx="2" fill="#161b22"/>
<rect x="504" y="110" width="13" height="13" rx="2" fill="#161b22"/>
<rect x="504" y="126" width="13" height="13" rx="2" fill="#FF0000"/>
<rect x="520" y="30" width="13" height="13" rx="2" fill="#161b22"/>
<rect x="520" y="46" width="13" height="13" rx="2" fill="#FF8C00"/>
<rect x="520" y="62" width="13" height="13" rx="2" fill="#161b22"/>
<rect x="520" y="78" width="13" height="13" rx="2" fill="#161b22"/>
<rect x="520" y="94" width="13" height="13" rx="2" fill="#FF0000"/>
<rect x="520" y="110" width="13" height="13" rx="2" fill="#FF0000"/>
<rect x="520" y="126" width="13" height="13" rx="2" fill="#FFBF00"/>
<rect x="536" y="30" width="13" height="13" rx="2" fill="#FF8C00"/>
<rect x="536" y="46" width="13" height="13" rx="2" fill="#161b22"/>
<rect x="536" y="62" width="13" height="13" rx="2" fill="#161b22"/>
<rect x="536" y="78" width="13" height="13" rx="2" fill="#FF0000"/>
<rect x="536" y="94" width="13" height="13" rx="2" fill="#FFBF00"/>
<rect x="536" y="110" width="13" height="13" rx="2" fill="#FFBF00"/>
<rect x="536" y="126" width="13" height="13" rx="2" fill="#FF8C00"/>
<rect x="552" y="30" width="13" height="13" rx="2" fill="#161b22"/>
<rect x="552" y="46" width="13" height="13" rx="2" fill="#FFBF00"/>
<rect x="552" y="62" width="13" height="13" rx="2" fill="#FFBF00"/>
<rect x="552" y="78" width="13" height="13" rx="2" fill="#FF4500"/>
<rect x="552" y="94" width="13" height="13" rx="2" fill="#161b22"/>
<rect x="552" y="110" width="13" height="13" rx="2" fill="#FF0000"/>
<rect x="552" y="126" width="13" height="13" rx="2" fill="#161b22"/>
<rect x="568" y="30" width="13" height="13" rx="2" fill="#161b22"/>
<rect x="568" y="46" width="13" height="13" rx="2" fill="#FFBF00"/>
<rect x="568" y="62" width="13" height="13" rx="2" fill="#FFBF00"/>
<rect x="568" y="78" width="13" height="13" rx="2" fill="#161b22"/>
<rect x="568" y="94" width="13" height="13" rx="2" fill="#161b22"/>
<rect x="568" y="110" width="13" height="13" rx="2" fill="#FF4500"/>
<rect x="568" y="126" width="13" height="13" rx="2" fill="#161b22"/>
<rect x="584" y="30" width="13" height="13" rx="2" fill="#FFBF00"/>
<rect x="584" y="46" width="13" height="13" rx="2" fill="#FFBF00"/>
<rect x="584" y="62" width="13" height="13" rx="2" fill="#161b22"/>
<rect x="584" y="78" width="13" height="13" rx="2" fill="#FFBF00"/>
<rect x="584" y="94" width="13" height="13" rx="2" fill="#FFBF00"/>
<rect x="584" y="110" width="13" height="13" rx="2" fill="#FF4500"/>
<rect x="584" y="126" width="13" height="13" rx="2" fill="#161b22"/>
<rect x="600" y="30" width="13" height="13" rx="2" fill="#FF8C00"/>
<rect x="600" y="46" width="13" height="13" rx="2" fill="#161b22"/>
<rect x="600" y="62" width="13" height="13" rx="2" fill="#161b22"/>
<rect x="600" y="78" width="13" height="13" rx="2" fill="#FFBF00"/>
<rect x="600" y="94" width="13" height="13" rx="2" fill="#161b22"/>
<rect x="600" y="110" width="13" height="13" rx="2" fill="#161b22"/>
<rect x="600" y="126" width="13" height="13" rx="2" fill="#FF8C00"/>
<rect x="616" y="30" width="13" height="13" rx="2" fill="#161b22"/>
<rect x="616" y="46" width="13" height="13" rx="2" fill="#161b22"/>
<rect x="616" y="62" width="13" height="13" rx="2" fill="#FF0000"/>
<rect x="616" y="78" width="13" height="13" rx="2" fill="#FF0000"/>
<rect x="616" y="94" width="13" height="13" rx="2" fill="#161b22"/>
<rect x="616" y="110" width="13" height="13" rx="2" fill="#161b22"/>
<rect x="616" y="126" width="13" height="13" rx="2" fill="#161b22"/>
<rect x="632" y="30" width="13" height="13" rx="2" fill="#FF4500"/>
<rect x="632" y="46" width="13" height="13" rx="2" fill="#FF4500"/>
<rect x="632" y="62" width="13" height="13" rx="2" fill="#FF4500"/>
<rect x="632" y="78" width="13" height="13" rx="2" fill="#161b22"/>
<rect x="632" y="94" width="13" height="13" rx="2" fill="#161b22"/>
<rect x="632" y="110" width="13" height="13" rx="2" fill="#FF8C00"/>
<rect x="632" y="126" width="13" height="13" rx="2" fill="#FF8C00"/>
<rect x="648" y="30" width="13" height="13" rx="2" fill="#FFBF00"/>
<rect x="648" y="46" width="13" height="13" rx="2" fill="#FF0000"/>
<rect x="648" y="62" width="13" height="13" rx="2" fill="#FFBF00"/>
<rect x="648" y="78" width="13" height="13" rx="2" fill="#161b22"/>
<rect x="648" y="94" width="13" height="13" rx="2" fill="#FF8C00"/>
<rect x="648" y="110" width="13" height="13" rx="2" fill="#161b22"/>
<rect x="648" y="126" width="13" height="13" rx="2" fill="#FFBF00"/>
<rect x="664" y="30" width="13" height="13" rx="2" fill="#FF4500"/>
<rect x="664" y="46" width="13" height="13" rx="2" fill="#161b22"/>
<rect x="664" y="62" width="13" height="13" rx="2" fill="#161b22"/>
<rect x="664" y="78" width="13" height="13" rx="2" fill="#161b22"/>
<rect x="664" y="94" width="13" height="13" rx="2" fill="#FFBF00"/>
<rect x="664" y="110" width="13" height="13" rx="2" fill="#161b22"/>
<rect x="664" y="126" width="13" height="13" rx="2" fill="#FFBF00"/>
<rect x="680" y="30" width="13" height="13" rx="2" fill="#FF8C00"/>
<rect x="680" y="46" width="13" height="13" rx="2" fill="#161b22"/>
<rect x="680" y="62" width="13" height="13" rx="2" fill="#FFBF00"/>
<rect x="680" y="78" width="13" height="13" rx="2" fill="#161b22"/>
<rect x="680" y="94" width="13" height="13" rx="2" fill="#161b22"/>
<rect x="680" y="110" width="13" height="13" rx="2" fill="#FF4500"/>
<rect x="680" y="126" width="13" height="13" rx="2" fill="#FF8C00"/>
<rect x="696" y="30" width="13" height="13" rx="2" fill="#161b22"/>
<rect x="696" y="46" width="13" height="13" rx="2" fill="#161b22"/>
<rect x="696" y="62" width="13" height="13" rx="2" fill="#161b22"/>
<rect x="696" y="78" width="13" height="13" rx="2" fill="#161b22"/>
<rect x="696" y="94" width="13" height="13" rx="2" fill="#FF8C00"/>
<rect x="696" y="110" width="13" height="13" rx="2" fill="#FFBF00"/>
<rect x="696" y="126" width="13" height="13" rx="2" fill="#161b22"/>
<rect x="712" y="30" width="13" height="13" rx="2" fill="#FF8C00"/>
<rect x="712" y="46" width="13" height="13" rx="2" fill="#FFBF00"/>
<rect x="712" y="62" width="13" height="13" rx="2" fill="#161b22"/>
<rect x="712" y="78" width="13" height="13" rx="2" fill="#161b22"/>
<rect x="712" y="94" width="13" height="13" rx="2" fill="#161b22"/>
<rect x="712" y="110" width="13" height="13" rx="2" fill="#FF4500"/>
<rect x="712" y="126" width="13" height="13" rx="2" fill="#FF4500"/>
<rect x="728" y="30" width="13" height="13" rx="2" fill="#FFBF00"/>
<rect x="728" y="46" width="13" height="13" rx="2" fill="#FF8C00"/>
<rect x="728" y="62" width="13" height="13" rx="2" fill="#FFBF00"/>
<rect x="728" y="78" width="13" height="13" rx="2" fill="#161b22"/>
<rect x="728" y="94" width="13" height="13" rx="2" fill="#161b22"/>
<rect x="728" y="110" width="13" height="13" rx="2" fill="#161b22"/>
<rect x="728" y="126" width="13" height="13" rx="2" fill="#FF4500"/>
<rect x="744" y="30" width="13" height="13" rx="2" fill="#FF8C00"/>
<rect x="744" y="46" width="13" height="13" rx="2" fill="#FF4500"/>
<rect x="744" y="62" width="13" height="13" rx="2" fill="#FF4500"/>
<rect x="744" y="78" width="13" height="13" rx="2" fill="#161b22"/>
<rect x="744" y="94" width="13" height="13" rx="2" fill="#161b22"/>
<rect x="744" y="110" width="13" height="13" rx="2" fill="#161b22"/>
<rect x="744" y="126" width="13" height="13" rx="2" fill="#FF8C00"/>
<rect x="760" y="30" width="13" height="13" rx="2" fill="#FF4500"/>
<rect x="760" y="46" width="13" height="13" rx="2" fill="#161b22"/>
<rect x="760" y="62" width="13" height="13" rx="2" fill="#FFBF00"/>
<rect x="760" y="78" width="13" height="13" rx="2" fill="#161b22"/>
<rect x="760" y="94" width="13" height="13" rx="2" fill="#FF4500"/>
<rect x="760" y="110" width="13" height="13" rx="2" fill="#FF4500"/>
<rect x="760" y="126" width="13" height="13" rx="2" fill="#FF0000"/>
<rect x="776" y="30" width="13" height="13" rx="2" fill="#FF8C00"/>
<rect x="776" y="46" width="13" height="13" rx="2" fill="#FF4500"/>
<rect x="776" y="62" width="13" height="13" rx="2" fill="#161b22"/>
<rect x="776" y="78" width="13" height="13" rx="2" fill="#FF8C00"/>
<rect x="776" y="94" width="13" height="13" rx="2" fill="#161b22"/>
<rect x="776" y="110" width="13" height="13" rx="2" fill="#FF4500"/>
<rect x="776" y="126" width="13" height="13" rx="2" fill="#FF8C00"/>
<rect x="792" y="30" width="13" height="13" rx="2" fill="#FF4500"/>
<rect x="792" y="46" width="13" height="13" rx="2" fill="#FF8C00"/>
<rect x="792" y="62" width="13" height="13" rx="2" fill="#161b22"/>
<rect x="792" y="78" width="13" height="13" rx="2" fill="#FF8C00"/>
<rect x="792" y="94" width="13" height="13" rx="2" fill="#161b22"/>
<rect x="792" y="110" width="13" height="13" rx="2" fill="#FF4500"/>
<rect x="792" y="126" width="13" height="13" rx="2" fill="#FF4500"/>
<rect x="808" y="30" width="13" height="13" rx="2" fill="#161b22"/>
<rect x="808" y="46" width="13" height="13" rx="2" fill="#FF8C00"/>
<rect x="808" y="62" width="13" height="13" rx="2" fill="#161b22"/>
<rect x="808" y="78" width="13" height="13" rx="2" fill="#161b22"/>
<rect x="808" y="94" width="13" height="13" rx="2" fill="#FF8C00"/>
<rect x="808" y="110" width="13" height="13" rx="2" fill="#161b22"/>
<rect x="808" y="126" width="13" height="13" rx="2" fill="#161b22"/>
<rect x="824" y="30" width="13" height="13" rx="2" fill="#161b22"/>
<rect x="824" y="46" width="13" height="13" rx="2" fill="#161b22"/>
<rect x="824" y="62" width="13" height="13" rx="2" fill="#FF4500"/>
<rect x="824" y="78" width="13" height="13" rx="2" fill="#FF0000"/>
<rect x="824" y="94" width="13" height="13" rx="2" fill="#161b22"/>
<rect x="824" y="110" width="13" height="13" rx="2" fill="#FFBF00"/>
<rect x="824" y="126" width="13" height="13" rx="2" fill="#161b22"/>
<rect x="840" y="30" width="13" height="13" rx="2" fill="#FF0000"/>
<rect x="840" y="46" width="13" height="13" rx="2" fill="#FFBF00"/>
<rect x="840" y="62" width="13" height="13" rx="2" fill="#FF4500"/>
<rect x="840" y="78" width="13" height="13" rx="2" fill="#161b22"/>
<rect x="840" y="94" width="13" height="13" rx="2" fill="#FF0000"/>
<rect x="840" y="110" width="13" height="13" rx="2" fill="#161b22"/>
<rect x="840" y="126" width="13" height="13" rx="2" fill="#FF0000"/>
<rect x="856" y="30" width="13" height="13" rx="2" fill="#161b22"/>
<rect x="856" y="46" width="13" height="13" rx="2" fill="#161b22"/>
<rect x="856" y="62" width="13" height="13" rx="2" fill="#161b22"/>
<rect x="856" y="78" width="13" height="13" rx="2" fill="#FF8C00"/>
<rect x="856" y="94" width="13" height="13" rx="2" fill="#161b22"/>
<rect x="856" y="110" width="13" height="13" rx="2" fill="#FFBF00"/>
<rect x="856" y="126" width="13" height="13" rx="2" fill="#FFBF00"/>
<text x="40" y="157" fill="#8b949e" font-family="monospace" font-size="10">Waiting for GitHub Action to populate real data...</text>
<text x="692" y="157" fill="#8b949e" font-family="monospace" font-size="10">Less</text>
<rect x="722" y="147" width="13" height="13" rx="2" fill="#161b22"/>
<rect x="738" y="147" width="13" height="13" rx="2" fill="#FFBF00"/>
<rect x="754" y="147" width="13" height="13" rx="2" fill="#FF8C00"/>
<rect x="770" y="147" width="13" height="13" rx="2" fill="#FF4500"/>
<rect x="786" y="147" width="13" height="13" rx="2" fill="#FF0000"/>
<text x="804" y="157" fill="#8b949e" font-family="monospace" font-size="10">More</text>
</svg>