<svg xmlns="http://www.w3.org/2000/svg" width="908" height="192" viewBox="0 0 908 192">
<rect width="908" height="192" fill="#0d1117" rx="6"/>
<text x="454" y="18" text-anchor="middle" fill="#FFCB05" font-family="'Press Start 2P', monospace" font-size="10">⚡ Tall Grass Activity ⚡</text>
<text x="2" y="57" fill="#8b949e" font-family="monospace" font-size="10">Mon</text>
<text x="2" y="89" fill="#8b949e" font-family="monospace" font-size="10">Wed</text>
<text x="2" y="121" fill="#8b949e" font-family="monospace" font-size="10">Fri</text>
<text x="40" y="24" fill="#8b949e" font-family="monospace" font-size="10">Mar</text>
<text x="104" y="24" fill="#8b949e" font-family="monospace" font-size="10">Apr</text>
<text x="168" y="24" fill="#8b949e" font-family="monospace" font-size="10">May</text>
<text x="248" y="24" fill="#8b949e" font-family="monospace" font-size="10">Jun</text>
<text x="312" y="24" fill="#8b949e" font-family="monospace" font-size="10">Jul</text>
<text x="376" y="24" fill="#8b949e" font-family="monospace" font-size="10">Aug</text>
<text x="456" y="24" fill="#8b949e" font-family="monospace" font-size="10">Sep</text>
<text x="520" y="24" fill="#8b949e" font-family="monospace" font-size="10">Oct</text>
<text x="584" y="24" fill="#8b949e" font-family="monospace" font-size="10">Nov</text>
<text x="664" y="24" fill="#8b949e" font-family="monospace" font-size="10">Dec</text>
<text x="728" y="24" fill="#8b949e" font-family="monospace" font-size="10">Jan</text>
<text x="808" y="24" fill="#8b949e" font-family="monospace" font-size="10">Feb</text>
<rect x="40" y="30" width="13" height="13" rx="2" fill="#161b22">
<title>2025-03-02: 0 contributions</title>
</rect>
<rect x="40" y="46" width="13" height="13" rx="2" fill="#161b22">
<title>2025-03-03: 0 contributions</title>
</rect>
<rect x="40" y="62" width="13" height="13" rx="2" fill="#161b22">
<title>2025-03-04: 0 contributions</title>
</rect>
<rect x="40" y="78" width="13" height="13" rx="2" fill="#161b22">
<title>2025-03-05: 0 contributions</title>
</rect>
<rect x="40" y="94" width="13" height="13" rx="2" fill="#161b22">
<title>2025-03-06: 0 contributions</title>
</rect>
<rect x="40" y="110" width="13" height="13" rx="2" fill="#161b22">
<title>2025-03-07: 0 contributions</title>
</rect>
<rect x="40" y="126" width="13" height="13" rx="2" fill="#161b22">
<title>2025-03-08: 0 contributions</title>
</rect>
<rect x="56" y="30" width="13" height="13" rx="2" fill="#161b22">
<title>2025-03-09: 0 contributions</title>
</rect>
<rect x="56" y="46" width="13" height="13" rx="2" fill="#161b22">
<title>2025-03-10: 0 contributions</title>
</rect>
<rect x="56" y="62" width="13" height="13" rx="2" fill="#161b22">
<title>2025-03-11: 0 contributions</title>
</rect>
<rect x="56" y="78" width="13" height="13" rx="2" fill="#161b22">
<title>2025-03-12: 0 contributions</title>
</rect>
<rect x="56" y="94" width="13" height="13" rx="2" fill="#FFBF00">
<title>2025-03-13: 4 contributions</title>
</rect>
<rect x="56" y="110" width="13" height="13" rx="2" fill="#161b22">
<title>2025-03-14: 0 contributions</title>
</rect>
<rect x="56" y="126" width="13" height="13" rx="2" fill="#161b22">
<title>2025-03-15: 0 contributions</title>
</rect>
<rect x="72" y="30" width="13" height="13" rx="2" fill="#161b22">
<title>2025-03-16: 0 contributions</title>
</rect>
<rect x="72" y="46" width="13" height="13" rx="2" fill="#161b22">
<title>2025-03-17: 0 contributions</title>
</rect>
<rect x="72" y="62" width="13" height="13" rx="2" fill="#161b22">
<title>2025-03-18: 0 contributions</title>
</rect>
<rect x="72" y="78" width="13" height="13" rx="2" fill="#161b22">
<title>2025-03-19: 0 contributions</title>
</rect>
<rect x="72" y="94" width="13" height="13" rx="2" fill="#161b22">
<title>2025-03-20: 0 contributions</title>
</rect>
<rect x="72" y="110" width="13" height="13" rx="2" fill="#161b22">
<title>2025-03-21: 0 contributions</title>
</rect>
<rect x="72" y="126" width="13" height="13" rx="2" fill="#FFBF00">
<title>2025-03-22: 2 contributions</title>
</rect>
<rect x="88" y="30" width="13" height="13" rx="2" fill="#161b22">
<title>2025-03-23: 0 contributions</title>
</rect>
<rect x="88" y="46" width="13" height="13" rx="2" fill="#161b22">
<title>2025-03-24: 0 contributions</title>
</rect>
<rect x="88" y="62" width="13" height="13" rx="2" fill="#161b22">
<title>2025-03-25: 0 contributions</title>
</rect>
<rect x="88" y="78" width="13" height="13" rx="2" fill="#161b22">
<title>2025-03-26: 0 contributions</title>
</rect>
<rect x="88" y="94" width="13" height="13" rx="2" fill="#FFBF00">
<title>2025-03-27: 7 contributions</title>
</rect>
<rect x="88" y="110" width="13" height="13" rx="2" fill="#161b22">
<title>2025-03-28: 0 contributions</title>
</rect>
<rect x="88" y="126" width="13" height="13" rx="2" fill="#161b22">
<title>2025-03-29: 0 contributions</title>
</rect>
<rect x="104" y="30" width="13" height="13" rx="2" fill="#161b22">
<title>2025-03-30: 0 contributions</title>
</rect>
<rect x="104" y="46" width="13" height="13" rx="2" fill="#161b22">
<title>2025-03-31: 0 contributions</title>
</rect>
<rect x="104" y="62" width="13" height="13" rx="2" fill="#161b22">
<title>2025-04-01: 0 contributions</title>
</rect>
<rect x="104" y="78" width="13" height="13" rx="2" fill="#161b22">
<title>2025-04-02: 0 contributions</title>
</rect>
<rect x="104" y="94" width="13" height="13" rx="2" fill="#161b22">
<title>2025-04-03: 0 contributions</title>
</rect>
<rect x="104" y="110" width="13" height="13" rx="2" fill="#FFBF00">
<title>2025-04-04: 1 contributions</title>
</rect>
<rect x="104" y="126" width="13" height="13" rx="2" fill="#161b22">
<title>2025-04-05: 0 contributions</title>
</rect>
<rect x="120" y="30" width="13" height="13" rx="2" fill="#161b22">
<title>2025-04-06: 0 contributions</title>
</rect>
<rect x="120" y="46" width="13" height="13" rx="2" fill="#161b22">
<title>2025-04-07: 0 contributions</title>
</rect>
<rect x="120" y="62" width="13" height="13" rx="2" fill="#161b22">
<title>2025-04-08: 0 contributions</title>
</rect>
<rect x="120" y="78" width="13" height="13" rx="2" fill="#FFBF00">
<title>2025-04-09: 1 contributions</title>
</rect>
<rect x="120" y="94" width="13" height="13" rx="2" fill="#161b22">
<title>2025-04-10: 0 contributions</title>
</rect>
<rect x="120" y="110" width="13" height="13" rx="2" fill="#FFBF00">
<title>2025-04-11: 1 contributions</title>
</rect>
<rect x="120" y="126" width="13" height="13" rx="2" fill="#161b22">
<title>2025-04-12: 0 contributions</title>
</rect>
<rect x="136" y="30" width="13" height="13" rx="2" fill="#161b22">
<title>2025-04-13: 0 contributions</title>
</rect>
<rect x="136" y="46" width="13" height="13" rx="2" fill="#161b22">
<title>2025-04-14: 0 contributions</title>
</rect>
<rect x="136" y="62" width="13" height="13" rx="2" fill="#161b22">
<title>2025-04-15: 0 contributions</title>
</rect>
<rect x="136" y="78" width="13" height="13" rx="2" fill="#161b22">
<title>2025-04-16: 0 contributions</title>
</rect>
<rect x="136" y="94" width="13" height="13" rx="2" fill="#161b22">
<title>2025-04-17: 0 contributions</title>
</rect>
<rect x="136" y="110" width="13" height="13" rx="2" fill="#161b22">
<title>2025-04-18: 0 contributions</title>
</rect>
<rect x="136" y="126" width="13" height="13" rx="2" fill="#FFBF00">
<title>2025-04-19: 7 contributions</title>
</rect>
<rect x="152" y="30" width="13" height="13" rx="2" fill="#FFBF00">
<title>2025-04-20: 4 contributions</title>
</rect>
<rect x="152" y="46" width="13" height="13" rx="2" fill="#FFBF00">
<title>2025-04-21: 5 contributions</title>
</rect>
<rect x="152" y="62" width="13" height="13" rx="2" fill="#161b22">
<title>2025-04-22: 0 contributions</title>
</rect>
<rect x="152" y="78" width="13" height="13" rx="2" fill="#161b22">
<title>2025-04-23: 0 contributions</title>
</rect>
<rect x="152" y="94" width="13" height="13" rx="2" fill="#161b22">
<title>2025-04-24: 0 contributions</title>
</rect>
<rect x="152" y="110" width="13" height="13" rx="2" fill="#161b22">
<title>2025-04-25: 0 contributions</title>
</rect>
<rect x="152" y="126" width="13" height="13" rx="2" fill="#161b22">
<title>2025-04-26: 0 contributions</title>
</rect>
<rect x="168" y="30" width="13" height="13" rx="2" fill="#161b22">
<title>2025-04-27: 0 contributions</title>
</rect>
<rect x="168" y="46" width="13" height="13" rx="2" fill="#161b22">
<title>2025-04-28: 0 contributions</title>
</rect>
<rect x="168" y="62" width="13" height="13" rx="2" fill="#161b22">
<title>2025-04-29: 0 contributions</title>
</rect>
<rect x="168" y="78" width="13" height="13" rx="2" fill="#161b22">
<title>2025-04-30: 0 contributions</title>
</rect>
<rect x="168" y="94" width="13" height="13" rx="2" fill="#161b22">
<title>2025-05-01: 0 contributions</title>
</rect>
<rect x="168" y="110" width="13" height="13" rx="2" fill="#161b22">
<title>2025-05-02: 0 contributions</title>
</rect>
<rect x="168" y="126" width="13" height="13" rx="2" fill="#161b22">
<title>2025-05-03: 0 contributions</title>
</rect>
<rect x="184" y="30" width="13" height="13" rx="2" fill="#FFBF00">
<title>2025-05-04: 2 contributions</title>
</rect>
<rect x="184" y="46" width="13" height="13" rx="2" fill="#FFBF00">
<title>2025-05-05: 7 contributions</title>
</rect>
<rect x="184" y="62" width="13" height="13" rx="2" fill="#161b22">
<title>2025-05-06: 0 contributions</title>
</rect>
<rect x="184" y="78" width="13" height="13" rx="2" fill="#161b22">
<title>2025-05-07: 0 contributions</title>
</rect>
<rect x="184" y="94" width="13" height="13" rx="2" fill="#161b22">
<title>2025-05-08: 0 contributions</title>
</rect>
<rect x="184" y="110" width="13" height="13" rx="2" fill="#161b22">
<title>2025-05-09: 0 contributions</title>
</rect>
<rect x="184" y="126" width="13" height="13" rx="2" fill="#161b22">
<title>2025-05-10: 0 contributions</title>
</rect>
<rect x="200" y="30" width="13" height="13" rx="2" fill="#161b22">
<title>2025-05-11: 0 contributions</title>
</rect>
<rect x="200" y="46" width="13" height="13" rx="2" fill="#FFBF00">
<title>2025-05-12: 4 contributions</title>
</rect>
<rect x="200" y="62" width="13" height="13" rx="2" fill="#161b22">
<title>2025-05-13: 0 contributions</title>
</rect>
<rect x="200" y="78" width="13" height="13" rx="2" fill="#161b22">
<title>2025-05-14: 0 contributions</title>
</rect>
<rect x="200" y="94" width="13" height="13" rx="2" fill="#161b22">
<title>2025-05-15: 0 contributions</title>
</rect>
<rect x="200" y="110" width="13" height="13" rx="2" fill="#FFBF00">
<title>2025-05-16: 3 contributions</title>
</rect>
<rect x="200" y="126" width="13" height="13" rx="2" fill="#FFBF00">
<title>2025-05-17: 4 contributions</title>
</rect>
<rect x="216" y="30" width="13" height="13" rx="2" fill="#161b22">
<title>2025-05-18: 0 contributions</title>
</rect>
<rect x="216" y="46" width="13" height="13" rx="2" fill="#161b22">
<title>2025-05-19: 0 contributions</title>
</rect>
<rect x="216" y="62" width="13" height="13" rx="2" fill="#161b22">
<title>2025-05-20: 0 contributions</title>
</rect>
<rect x="216" y="78" width="13" height="13" rx="2" fill="#161b22">
<title>2025-05-21: 0 contributions</title>
</rect>
<rect x="216" y="94" width="13" height="13" rx="2" fill="#161b22">
<title>2025-05-22: 0 contributions</title>
</rect>
<rect x="216" y="110" width="13" height="13" rx="2" fill="#161b22">
<title>2025-05-23: 0 contributions</title>
</rect>
<rect x="216" y="126" width="13" height="13" rx="2" fill="#161b22">
<title>2025-05-24: 0 contributions</title>
</rect>
<rect x="232" y="30" width="13" height="13" rx="2" fill="#161b22">
<title>2025-05-25: 0 contributions</title>
</rect>
<rect x="232" y="46" width="13" height="13" rx="2" fill="#161b22">
<title>2025-05-26: 0 contributions</title>
</rect>
<rect x="232" y="62" width="13" height="13" rx="2" fill="#161b22">
<title>2025-05-27: 0 contributions</title>
</rect>
<rect x="232" y="78" width="13" height="13" rx="2" fill="#161b22">
<title>2025-05-28: 0 contributions</title>
</rect>
<rect x="232" y="94" width="13" height="13" rx="2" fill="#161b22">
<title>2025-05-29: 0 contributions</title>
</rect>
<rect x="232" y="110" width="13" height="13" rx="2" fill="#161b22">
<title>2025-05-30: 0 contributions</title>
</rect>
<rect x="232" y="126" width="13" height="13" rx="2" fill="#161b22">
<title>2025-05-31: 0 contributions</title>
</rect>
<rect x="248" y="30" width="13" height="13" rx="2" fill="#161b22">
<title>2025-06-01: 0 contributions</title>
</rect>
<rect x="248" y="46" width="13" height="13" rx="2" fill="#161b22">
<title>2025-06-02: 0 contributions</title>
</rect>
<rect x="248" y="62" width="13" height="13" rx="2" fill="#161b22">
<title>2025-06-03: 0 contributions</title>
</rect>
<rect x="248" y="78" width="13" height="13" rx="2" fill="#161b22">
<title>2025-06-04: 0 contributions</title>
</rect>
<rect x="248" y="94" width="13" height="13" rx="2" fill="#161b22">
<title>2025-06-05: 0 contributions</title>
</rect>
<rect x="248" y="110" width="13" height="13" rx="2" fill="#161b22">
<title>2025-06-06: 0 contributions</title>
</rect>
<rect x="248" y="126" width="13" height="13" rx="2" fill="#161b22">
<title>2025-06-07: 0 contributions</title>
</rect>
<rect x="264" y="30" width="13" height="13" rx="2" fill="#161b22">
<title>2025-06-08: 0 contributions</title>
</rect>
<rect x="264" y="46" width="13" height="13" rx="2" fill="#161b22">
<title>2025-06-09: 0 contributions</title>
</rect>
<rect x="264" y="62" width="13" height="13" rx="2" fill="#161b22">
<title>2025-06-10: 0 contributions</title>
</rect>
<rect x="264" y="78" width="13" height="13" rx="2" fill="#161b22">
<title>2025-06-11: 0 contributions</title>
</rect>
<rect x="264" y="94" width="13" height="13" rx="2" fill="#161b22">
<title>2025-06-12: 0 contributions</title>
</rect>
<rect x="264" y="110" width="13" height="13" rx="2" fill="#161b22">
<title>2025-06-13: 0 contributions</title>
</rect>
<rect x="264" y="126" width="13" height="13" rx="2" fill="#161b22">
<title>2025-06-14: 0 contributions</title>
</rect>
<rect x="280" y="30" width="13" height="13" rx="2" fill="#161b22">
<title>2025-06-15: 0 contributions</title>
</rect>
<rect x="280" y="46" width="13" height="13" rx="2" fill="#161b22">
<title>2025-06-16: 0 contributions</title>
</rect>
<rect x="280" y="62" width="13" height="13" rx="2" fill="#161b22">
<title>2025-06-17: 0 contributions</title>
</rect>
<rect x="280" y="78" width="13" height="13" rx="2" fill="#161b22">
<title>2025-06-18: 0 contributions</title>
</rect>
<rect x="280" y="94" width="13" height="13" rx="2" fill="#161b22">
<title>2025-06-19: 0 contributions</title>
</rect>
<rect x="280" y="110" width="13" height="13" rx="2" fill="#161b22">
<title>2025-06-20: 0 contributions</title>
</rect>
<rect x="280" y="126" width="13" height="13" rx="2" fill="#FFBF00">
<title>2025-06-21: 1 contributions</title>
</rect>
<rect x="296" y="30" width="13" height="13" rx="2" fill="#FFBF00">
<title>2025-06-22: 2 contributions</title>
</rect>
<rect x="296" y="46" width="13" height="13" rx="2" fill="#161b22">
<title>2025-06-23: 0 contributions</title>
</rect>
<rect x="296" y="62" width="13" height="13" rx="2" fill="#161b22">
<title>2025-06-24: 0 contributions</title>
</rect>
<rect x="296" y="78" width="13" height="13" rx="2" fill="#161b22">
<title>2025-06-25: 0 contributions</title>
</rect>
<rect x="296" y="94" width="13" height="13" rx="2" fill="#161b22">
<title>2025-06-26: 0 contributions</title>
</rect>
<rect x="296" y="110" width="13" height="13" rx="2" fill="#161b22">
<title>2025-06-27: 0 contributions</title>
</rect>
<rect x="296" y="126" width="13" height="13" rx="2" fill="#161b22">
<title>2025-06-28: 0 contributions</title>
</rect>
<rect x="312" y="30" width="13" height="13" rx="2" fill="#FF8C00">
<title>2025-06-29: 10 contributions</title>
</rect>
<rect x="312" y="46" width="13" height="13" rx="2" fill="#161b22">
<title>2025-06-30: 0 contributions</title>
</rect>
<rect x="312" y="62" width="13" height="13" rx="2" fill="#161b22">
<title>2025-07-01: 0 contributions</title>
</rect>
<rect x="312" y="78" width="13" height="13" rx="2" fill="#161b22">
<title>2025-07-02: 0 contributions</title>
</rect>
<rect x="312" y="94" width="13" height="13" rx="2" fill="#161b22">
<title>2025-07-03: 0 contributions</title>
</rect>
<rect x="312" y="110" width="13" height="13" rx="2" fill="#161b22">
<title>2025-07-04: 0 contributions</title>
</rect>
<rect x="312" y="126" width="13" height="13" rx="2" fill="#161b22">
<title>2025-07-05: 0 contributions</title>
</rect>
<rect x="328" y="30" width="13" height="13" rx="2" fill="#161b22">
<title>2025-07-06: 0 contributions</title>
</rect>
<rect x="328" y="46" width="13" height="13" rx="2" fill="#161b22">
<title>2025-07-07: 0 contributions</title>
</rect>
<rect x="328" y="62" width="13" height="13" rx="2" fill="#161b22">
<title>2025-07-08: 0 contributions</title>
</rect>
<rect x="328" y="78" width="13" height="13" rx="2" fill="#FFBF00">
<title>2025-07-09: 4 contributions</title>
</rect>
<rect x="328" y="94" width="13" height="13" rx="2" fill="#FFBF00">
<title>2025-07-10: 2 contributions</title>
</rect>
<rect x="328" y="110" width="13" height="13" rx="2" fill="#161b22">
<title>2025-07-11: 0 contributions</title>
</rect>
<rect x="328" y="126" width="13" height="13" rx="2" fill="#161b22">
<title>2025-07-12: 0 contributions</title>
</rect>
<rect x="344" y="30" width="13" height="13" rx="2" fill="#161b22">
<title>2025-07-13: 0 contributions</title>
</rect>
<rect x="344" y="46" width="13" height="13" rx="2" fill="#161b22">
<title>2025-07-14: 0 contributions</title>
</rect>
<rect x="344" y="62" width="13" height="13" rx="2" fill="#161b22">
<title>2025-07-15: 0 contributions</title>
</rect>
<rect x="344" y="78" width="13" height="13" rx="2" fill="#161b22">
<title>2025-07-16: 0 contributions</title>
</rect>
<rect x="344" y="94" width="13" height="13" rx="2" fill="#161b22">
<title>2025-07-17: 0 contributions</title>
</rect>
<rect x="344" y="110" width="13" height="13" rx="2" fill="#161b22">
<title>2025-07-18: 0 contributions</title>
</rect>
<rect x="344" y="126" width="13" height="13" rx="2" fill="#161b22">
<title>2025-07-19: 0 contributions</title>
</rect>
<rect x="360" y="30" width="13" height="13" rx="2" fill="#FFBF00">
<title>2025-07-20: 2 contributions</title>
</rect>
<rect x="360" y="46" width="13" height="13" rx="2" fill="#161b22">
<title>2025-07-21: 0 contributions</title>
</rect>
<rect x="360" y="62" width="13" height="13" rx="2" fill="#161b22">
<title>2025-07-22: 0 contributions</title>
</rect>
<rect x="360" y="78" width="13" height="13" rx="2" fill="#161b22">
<title>2025-07-23: 0 contributions</title>
</rect>
<rect x="360" y="94" width="13" height="13" rx="2" fill="#161b22">
<title>2025-07-24: 0 contributions</title>
</rect>
<rect x="360" y="110" width="13" height="13" rx="2" fill="#161b22">
<title>2025-07-25: 0 contributions</title>
</rect>
<rect x="360" y="126" width="13" height="13" rx="2" fill="#161b22">
<title>2025-07-26: 0 contributions</title>
</rect>
<rect x="376" y="30" width="13" height="13" rx="2" fill="#FFBF00">
<title>2025-07-27: 2 contributions</title>
</rect>
<rect x="376" y="46" width="13" height="13" rx="2" fill="#FFBF00">
<title>2025-07-28: 1 contributions</title>
</rect>
<rect x="376" y="62" width="13" height="13" rx="2" fill="#161b22">
<title>2025-07-29: 0 contributions</title>
</rect>
<rect x="376" y="78" width="13" height="13" rx="2" fill="#161b22">
<title>2025-07-30: 0 contributions</title>
</rect>
<rect x="376" y="94" width="13" height="13" rx="2" fill="#161b22">
<title>2025-07-31: 0 contributions</title>
</rect>
<rect x="376" y="110" width="13" height="13" rx="2" fill="#161b22">
<title>2025-08-01: 0 contributions</title>
</rect>
<rect x="376" y="126" width="13" height="13" rx="2" fill="#FFBF00">
<title>2025-08-02: 3 contributions</title>
</rect>
<rect x="392" y="30" width="13" height="13" rx="2" fill="#161b22">
<title>2025-08-03: 0 contributions</title>
</rect>
<rect x="392" y="46" width="13" height="13" rx="2" fill="#161b22">
<title>2025-08-04: 0 contributions</title>
</rect>
<rect x="392" y="62" width="13" height="13" rx="2" fill="#161b22">
<title>2025-08-05: 0 contributions</title>
</rect>
<rect x="392" y="78" width="13" height="13" rx="2" fill="#161b22">
<title>2025-08-06: 0 contributions</title>
</rect>
<rect x="392" y="94" width="13" height="13" rx="2" fill="#161b22">
<title>2025-08-07: 0 contributions</title>
</rect>
<rect x="392" y="110" width="13" height="13" rx="2" fill="#161b22">
<title>2025-08-08: 0 contributions</title>
</rect>
<rect x="392" y="126" width="13" height="13" rx="2" fill="#161b22">
<title>2025-08-09: 0 contributions</title>
</rect>
<rect x="408" y="30" width="13" height="13" rx="2" fill="#FFBF00">
<title>2025-08-10: 2 contributions</title>
</rect>
<rect x="408" y="46" width="13" height="13" rx="2" fill="#161b22">
<title>2025-08-11: 0 contributions</title>
</rect>
<rect x="408" y="62" width="13" height="13" rx="2" fill="#161b22">
<title>2025-08-12: 0 contributions</title>
</rect>
<rect x="408" y="78" width="13" height="13" rx="2" fill="#161b22">
<title>2025-08-13: 0 contributions</title>
</rect>
<rect x="408" y="94" width="13" height="13" rx="2" fill="#FFBF00">
<title>2025-08-14: 2 contributions</title>
</rect>
<rect x="408" y="110" width="13" height="13" rx="2" fill="#FFBF00">
<title>2025-08-15: 1 contributions</title>
</rect>
<rect x="408" y="126" width="13" height="13" rx="2" fill="#161b22">
<title>2025-08-16: 0 contributions</title>
</rect>
<rect x="424" y="30" width="13" height="13" rx="2" fill="#FFBF00">
<title>2025-08-17: 4 contributions</title>
</rect>
<rect x="424" y="46" width="13" height="13" rx="2" fill="#161b22">
<title>2025-08-18: 0 contributions</title>
</rect>
<rect x="424" y="62" width="13" height="13" rx="2" fill="#FFBF00">
<title>2025-08-19: 1 contributions</title>
</rect>
<rect x="424" y="78" width="13" height="13" rx="2" fill="#161b22">
<title>2025-08-20: 0 contributions</title>
</rect>
<rect x="424" y="94" width="13" height="13" rx="2" fill="#161b22">
<title>2025-08-21: 0 contributions</title>
</rect>
<rect x="424" y="110" width="13" height="13" rx="2" fill="#161b22">
<title>2025-08-22: 0 contributions</title>
</rect>
<rect x="424" y="126" width="13" height="13" rx="2" fill="#161b22">
<title>2025-08-23: 0 contributions</title>
</rect>
<rect x="440" y="30" width="13" height="13" rx="2" fill="#161b22">
<title>2025-08-24: 0 contributions</title>
</rect>
<rect x="440" y="46" width="13" height="13" rx="2" fill="#161b22">
<title>2025-08-25: 0 contributions</title>
</rect>
<rect x="440" y="62" width="13" height="13" rx="2" fill="#161b22">
<title>2025-08-26: 0 contributions</title>
</rect>
<rect x="440" y="78" width="13" height="13" rx="2" fill="#161b22">
<title>2025-08-27: 0 contributions</title>
</rect>
<rect x="440" y="94" width="13" height="13" rx="2" fill="#161b22">
<title>2025-08-28: 0 contributions</title>
</rect>
<rect x="440" y="110" width="13" height="13" rx="2" fill="#161b22">
<title>2025-08-29: 0 contributions</title>
</rect>
<rect x="440" y="126" width="13" height="13" rx="2" fill="#161b22">
<title>2025-08-30: 0 contributions</title>
</rect>
<rect x="456" y="30" width="13" height="13" rx="2" fill="#161b22">
<title>2025-08-31: 0 contributions</title>
</rect>
<rect x="456" y="46" width="13" height="13" rx="2" fill="#161b22">
<title>2025-09-01: 0 contributions</title>
</rect>
<rect x="456" y="62" width="13" height="13" rx="2" fill="#161b22">
<title>2025-09-02: 0 contributions</title>
</rect>
<rect x="456" y="78" width="13" height="13" rx="2" fill="#161b22">
<title>2025-09-03: 0 contributions</title>
</rect>
<rect x="456" y="94" width="13" height="13" rx="2" fill="#161b22">
<title>2025-09-04: 0 contributions</title>
</rect>
<rect x="456" y="110" width="13" height="13" rx="2" fill="#161b22">
<title>2025-09-05: 0 contributions</title>
</rect>
<rect x="456" y="126" width="13" height="13" rx="2" fill="#FFBF00">
<title>2025-09-06: 7 contributions</title>
</rect>
<rect x="472" y="30" width="13" height="13" rx="2" fill="#161b22">
<title>2025-09-07: 0 contributions</title>
</rect>
<rect x="472" y="46" width="13" height="13" rx="2" fill="#FFBF00">
<title>2025-09-08: 7 contributions</title>
</rect>
<rect x="472" y="62" width="13" height="13" rx="2" fill="#FFBF00">
<title>2025-09-09: 8 contributions</title>
</rect>
<rect x="472" y="78" width="13" height="13" rx="2" fill="#161b22">
<title>2025-09-10: 0 contributions</title>
</rect>
<rect x="472" y="94" width="13" height="13" rx="2" fill="#FFBF00">
<title>2025-09-11: 2 contributions</title>
</rect>
<rect x="472" y="110" width="13" height="13" rx="2" fill="#161b22">
<title>2025-09-12: 0 contributions</title>
</rect>
<rect x="472" y="126" width="13" height="13" rx="2" fill="#161b22">
<title>2025-09-13: 0 contributions</title>
</rect>
<rect x="488" y="30" width="13" height="13" rx="2" fill="#161b22">
<title>2025-09-14: 0 contributions</title>
</rect>
<rect x="488" y="46" width="13" height="13" rx="2" fill="#161b22">
<title>2025-09-15: 0 contributions</title>
</rect>
<rect x="488" y="62" width="13" height="13" rx="2" fill="#FFBF00">
<title>2025-09-16: 3 contributions</title>
</rect>
<rect x="488" y="78" width="13" height="13" rx="2" fill="#161b22">
<title>2025-09-17: 0 contributions</title>
</rect>
<rect x="488" y="94" width="13" height="13" rx="2" fill="#161b22">
<title>2025-09-18: 0 contributions</title>
</rect>
<rect x="488" y="110" width="13" height="13" rx="2" fill="#161b22">
<title>2025-09-19: 0 contributions</title>
</rect>
<rect x="488" y="126" width="13" height="13" rx="2" fill="#161b22">
<title>2025-09-20: 0 contributions</title>
</rect>
<rect x="504" y="30" width="13" height="13" rx="2" fill="#FFBF00">
<title>2025-09-21: 1 contributions</title>
</rect>
<rect x="504" y="46" width="13" height="13" rx="2" fill="#FFBF00">
<title>2025-09-22: 2 contributions</title>
</rect>
<rect x="504" y="62" width="13" height="13" rx="2" fill="#161b22">
<title>2025-09-23: 0 contributions</title>
</rect>
<rect x="504" y="78" width="13" height="13" rx="2" fill="#161b22">
<title>2025-09-24: 0 contributions</title>
</rect>
<rect x="504" y="94" width="13" height="13" rx="2" fill="#FFBF00">
<title>2025-09-25: 3 contributions</title>
</rect>
<rect x="504" y="110" width="13" height="13" rx="2" fill="#161b22">
<title>2025-09-26: 0 contributions</title>
</rect>
<rect x="504" y="126" width="13" height="13" rx="2" fill="#161b22">
<title>2025-09-27: 0 contributions</title>
</rect>
<rect x="520" y="30" width="13" height="13" rx="2" fill="#161b22">
<title>2025-09-28: 0 contributions</title>
</rect>
<rect x="520" y="46" width="13" height="13" rx="2" fill="#161b22">
<title>2025-09-29: 0 contributions</title>
</rect>
<rect x="520" y="62" width="13" height="13" rx="2" fill="#161b22">
<title>2025-09-30: 0 contributions</title>
</rect>
<rect x="520" y="78" width="13" height="13" rx="2" fill="#161b22">
<title>2025-10-01: 0 contributions</title>
</rect>
<rect x="520" y="94" width="13" height="13" rx="2" fill="#161b22">
<title>2025-10-02: 0 contributions</title>
</rect>
<rect x="520" y="110" width="13" height="13" rx="2" fill="#FFBF00">
<title>2025-10-03: 6 contributions</title>
</rect>
<rect x="520" y="126" width="13" height="13" rx="2" fill="#161b22">
<title>2025-10-04: 0 contributions</title>
</rect>
<rect x="536" y="30" width="13" height="13" rx="2" fill="#161b22">
<title>2025-10-05: 0 contributions</title>
</rect>
<rect x="536" y="46" width="13" height="13" rx="2" fill="#161b22">
<title>2025-10-06: 0 contributions</title>
</rect>
<rect x="536" y="62" width="13" height="13" rx="2" fill="#FFBF00">
<title>2025-10-07: 1 contributions</title>
</rect>
<rect x="536" y="78" width="13" height="13" rx="2" fill="#FFBF00">
<title>2025-10-08: 2 contributions</title>
</rect>
<rect x="536" y="94" width="13" height="13" rx="2" fill="#FFBF00">
<title>2025-10-09: 1 contributions</title>
</rect>
<rect x="536" y="110" width="13" height="13" rx="2" fill="#FFBF00">
<title>2025-10-10: 3 contributions</title>
</rect>
<rect x="536" y="126" width="13" height="13" rx="2" fill="#161b22">
<title>2025-10-11: 0 contributions</title>
</rect>
<rect x="552" y="30" width="13" height="13" rx="2" fill="#161b22">
<title>2025-10-12: 0 contributions</title>
</rect>
<rect x="552" y="46" width="13" height="13" rx="2" fill="#FFBF00">
<title>2025-10-13: 2 contributions</title>
</rect>
<rect x="552" y="62" width="13" height="13" rx="2" fill="#FFBF00">
<title>2025-10-14: 8 contributions</title>
</rect>
<rect x="552" y="78" width="13" height="13" rx="2" fill="#161b22">
<title>2025-10-15: 0 contributions</title>
</rect>
<rect x="552" y="94" width="13" height="13" rx="2" fill="#FFBF00">
<title>2025-10-16: 5 contributions</title>
</rect>
<rect x="552" y="110" width="13" height="13" rx="2" fill="#FFBF00">
<title>2025-10-17: 1 contributions</title>
</rect>
<rect x="552" y="126" width="13" height="13" rx="2" fill="#FFBF00">
<title>2025-10-18: 3 contributions</title>
</rect>
<rect x="568" y="30" width="13" height="13" rx="2" fill="#FFBF00">
<title>2025-10-19: 2 contributions</title>
</rect>
<rect x="568" y="46" width="13" height="13" rx="2" fill="#FFBF00">
<title>2025-10-20: 1 contributions</title>
</rect>
<rect x="568" y="62" width="13" height="13" rx="2" fill="#FFBF00">
<title>2025-10-21: 3 contributions</title>
</rect>
<rect x="568" y="78" width="13" height="13" rx="2" fill="#FFBF00">
<title>2025-10-22: 3 contributions</title>
</rect>
<rect x="568" y="94" width="13" height="13" rx="2" fill="#161b22">
<title>2025-10-23: 0 contributions</title>
</rect>
<rect x="568" y="110" width="13" height="13" rx="2" fill="#FFBF00">
<title>2025-10-24: 7 contributions</title>
</rect>
<rect x="568" y="126" width="13" height="13" rx="2" fill="#161b22">
<title>2025-10-25: 0 contributions</title>
</rect>
<rect x="584" y="30" width="13" height="13" rx="2" fill="#161b22">
<title>2025-10-26: 0 contributions</title>
</rect>
<rect x="584" y="46" width="13" height="13" rx="2" fill="#FFBF00">
<title>2025-10-27: 3 contributions</title>
</rect>
<rect x="584" y="62" width="13" height="13" rx="2" fill="#FFBF00">
<title>2025-10-28: 2 contributions</title>
</rect>
<rect x="584" y="78" width="13" height="13" rx="2" fill="#161b22">
<title>2025-10-29: 0 contributions</title>
</rect>
<rect x="584" y="94" width="13" height="13" rx="2" fill="#161b22">
<title>2025-10-30: 0 contributions</title>
</rect>
<rect x="584" y="110" width="13" height="13" rx="2" fill="#161b22">
<title>2025-10-31: 0 contributions</title>
</rect>
<rect x="584" y="126" width="13" height="13" rx="2" fill="#FFBF00">
<title>2025-11-01: 4 contributions</title>
</rect>
<rect x="600" y="30" width="13" height="13" rx="2" fill="#161b22">
<title>2025-11-02: 0 contributions</title>
</rect>
<rect x="600" y="46" width="13" height="13" rx="2" fill="#161b22">
<title>2025-11-03: 0 contributions</title>
</rect>
<rect x="600" y="62" width="13" height="13" rx="2" fill="#161b22">
<title>2025-11-04: 0 contributions</title>
</rect>
<rect x="600" y="78" width="13" height="13" rx="2" fill="#161b22">
<title>2025-11-05: 0 contributions</title>
</rect>
<rect x="600" y="94" width="13" height="13" rx="2" fill="#161b22">
<title>2025-11-06: 0 contributions</title>
</rect>
<rect x="600" y="110" width="13" height="13" rx="2" fill="#161b22">
<title>2025-11-07: 0 contributions</title>
</rect>
<rect x="600" y="126" width="13" height="13" rx="2" fill="#161b22">
<title>2025-11-08: 0 contributions</title>
</rect>
<rect x="616" y="30" width="13" height="13" rx="2" fill="#161b22">
<title>2025-11-09: 0 contributions</title>
</rect>
<rect x="616" y="46" width="13" height="13" rx="2" fill="#161b22">
<title>2025-11-10: 0 contributions</title>
</rect>
<rect x="616" y="62" width="13" height="13" rx="2" fill="#161b22">
<title>2025-11-11: 0 contributions</title>
</rect>
<rect x="616" y="78" width="13" height="13" rx="2" fill="#161b22">
<title>2025-11-12: 0 contributions</title>
</rect>
<rect x="616" y="94" width="13" height="13" rx="2" fill="#161b22">
<title>2025-11-13: 0 contributions</title>
</rect>
<rect x="616" y="110" width="13" height="13" rx="2" fill="#161b22">
<title>2025-11-14: 0 contributions</title>
</rect>
<rect x="616" y="126" width="13" height="13" rx="2" fill="#FFBF00">
<title>2025-11-15: 1 contributions</title>
</rect>
<rect x="632" y="30" width="13" height="13" rx="2" fill="#FFBF00">
<title>2025-11-16: 5 contributions</title>
</rect>
<rect x="632" y="46" width="13" height="13" rx="2" fill="#161b22">
<title>2025-11-17: 0 contributions</title>
</rect>
<rect x="632" y="62" width="13" height="13" rx="2" fill="#161b22">
<title>2025-11-18: 0 contributions</title>
</rect>
<rect x="632" y="78" width="13" height="13" rx="2" fill="#FFBF00">
<title>2025-11-19: 2 contributions</title>
</rect>
<rect x="632" y="94" width="13" height="13" rx="2" fill="#161b22">
<title>2025-11-20: 0 contributions</title>
</rect>
<rect x="632" y="110" width="13" height="13" rx="2" fill="#161b22">
<title>2025-11-21: 0 contributions</title>
</rect>
<rect x="632" y="126" width="13" height="13" rx="2" fill="#161b22">
<title>2025-11-22: 0 contributions</title>
</rect>
<rect x="648" y="30" width="13" height="13" rx="2" fill="#161b22">
<title>2025-11-23: 0 contributions</title>
</rect>
<rect x="648" y="46" width="13" height="13" rx="2" fill="#161b22">
<title>2025-11-24: 0 contributions</title>
</rect>
<rect x="648" y="62" width="13" height="13" rx="2" fill="#161b22">
<title>2025-11-25: 0 contributions</title>
</rect>
<rect x="648" y="78" width="13" height="13" rx="2" fill="#FFBF00">
<title>2025-11-26: 2 contributions</title>
</rect>
<rect x="648" y="94" width="13" height="13" rx="2" fill="#FFBF00">
<title>2025-11-27: 2 contributions</title>
</rect>
<rect x="648" y="110" width="13" height="13" rx="2" fill="#FFBF00">
<title>2025-11-28: 2 contributions</title>
</rect>
<rect x="648" y="126" width="13" height="13" rx="2" fill="#161b22">
<title>2025-11-29: 0 contributions</title>
</rect>
<rect x="664" y="30" width="13" height="13" rx="2" fill="#161b22">
<title>2025-11-30: 0 contributions</title>
</rect>
<rect x="664" y="46" width="13" height="13" rx="2" fill="#161b22">
<title>2025-12-01: 0 contributions</title>
</rect>
<rect x="664" y="62" width="13" height="13" rx="2" fill="#FFBF00">
<title>2025-12-02: 2 contributions</title>
</rect>
<rect x="664" y="78" width="13" height="13" rx="2" fill="#161b22">
<title>2025-12-03: 0 contributions</title>
</rect>
<rect x="664" y="94" width="13" height="13" rx="2" fill="#161b22">
<title>2025-12-04: 0 contributions</title>
</rect>
<rect x="664" y="110" width="13" height="13" rx="2" fill="#161b22">
<title>2025-12-05: 0 contributions</title>
</rect>
<rect x="664" y="126" width="13" height="13" rx="2" fill="#161b22">
<title>2025-12-06: 0 contributions</title>
</rect>
<rect x="680" y="30" width="13" height="13" rx="2" fill="#161b22">
<title>2025-12-07: 0 contributions</title>
</rect>
<rect x="680" y="46" width="13" height="13" rx="2" fill="#161b22">
<title>2025-12-08: 0 contributions</title>
</rect>
<rect x="680" y="62" width="13" height="13" rx="2" fill="#FFBF00">
<title>2025-12-09: 6 contributions</title>
</rect>
<rect x="680" y="78" width="13" height="13" rx="2" fill="#161b22">
<title>2025-12-10: 0 contributions</title>
</rect>
<rect x="680" y="94" width="13" height="13" rx="2" fill="#161b22">
<title>2025-12-11: 0 contributions</title>
</rect>
<rect x="680" y="110" width="13" height="13" rx="2" fill="#161b22">
<title>2025-12-12: 0 contributions</title>
</rect>
<rect x="680" y="126" width="13" height="13" rx="2" fill="#FFBF00">
<title>2025-12-13: 2 contributions</title>
</rect>
<rect x="696" y="30" width="13" height="13" rx="2" fill="#FFBF00">
<title>2025-12-14: 3 contributions</title>
</rect>
<rect x="696" y="46" width="13" height="13" rx="2" fill="#FFBF00">
<title>2025-12-15: 4 contributions</title>
</rect>
<rect x="696" y="62" width="13" height="13" rx="2" fill="#FFBF00">
<title>2025-12-16: 3 contributions</title>
</rect>
<rect x="696" y="78" width="13" height="13" rx="2" fill="#FFBF00">
<title>2025-12-17: 5 contributions</title>
</rect>
<rect x="696" y="94" width="13" height="13" rx="2" fill="#161b22">
<title>2025-12-18: 0 contributions</title>
</rect>
<rect x="696" y="110" width="13" height="13" rx="2" fill="#161b22">
<title>2025-12-19: 0 contributions</title>
</rect>
<rect x="696" y="126" width="13" height="13" rx="2" fill="#161b22">
<title>2025-12-20: 0 contributions</title>
</rect>
<rect x="712" y="30" width="13" height="13" rx="2" fill="#161b22">
<title>2025-12-21: 0 contributions</title>
</rect>
<rect x="712" y="46" width="13" height="13" rx="2" fill="#161b22">
<title>2025-12-22: 0 contributions</title>
</rect>
<rect x="712" y="62" width="13" height="13" rx="2" fill="#161b22">
<title>2025-12-23: 0 contributions</title>
</rect>
<rect x="712" y="78" width="13" height="13" rx="2" fill="#161b22">
<title>2025-12-24: 0 contributions</title>
</rect>
<rect x="712" y="94" width="13" height="13" rx="2" fill="#161b22">
<title>2025-12-25: 0 contributions</title>
</rect>
<rect x="712" y="110" width="13" height="13" rx="2" fill="#161b22">
<title>2025-12-26: 0 contributions</title>
</rect>
<rect x="712" y="126" width="13" height="13" rx="2" fill="#161b22">
<title>2025-12-27: 0 contributions</title>
</rect>
<rect x="728" y="30" width="13" height="13" rx="2" fill="#161b22">
<title>2025-12-28: 0 contributions</title>
</rect>
<rect x="728" y="46" width="13" height="13" rx="2" fill="#161b22">
<title>2025-12-29: 0 contributions</title>
</rect>
<rect x="728" y="62" width="13" height="13" rx="2" fill="#161b22">
<title>2025-12-30: 0 contributions</title>
</rect>
<rect x="728" y="78" width="13" height="13" rx="2" fill="#161b22">
<title>2025-12-31: 0 contributions</title>
</rect>
<rect x="728" y="94" width="13" height="13" rx="2" fill="#161b22">
<title>2026-01-01: 0 contributions</title>
</rect>
<rect x="728" y="110" width="13" height="13" rx="2" fill="#161b22">
<title>2026-01-02: 0 contributions</title>
</rect>
<rect x="728" y="126" width="13" height="13" rx="2" fill="#161b22">
<title>2026-01-03: 0 contributions</title>
</rect>
<rect x="744" y="30" width="13" height="13" rx="2" fill="#161b22">
<title>2026-01-04: 0 contributions</title>
</rect>
<rect x="744" y="46" width="13" height="13" rx="2" fill="#FFBF00">
<title>2026-01-05: 2 contributions</title>
</rect>
<rect x="744" y="62" width="13" height="13" rx="2" fill="#161b22">
<title>2026-01-06: 0 contributions</title>
</rect>
<rect x="744" y="78" width="13" height="13" rx="2" fill="#161b22">
<title>2026-01-07: 0 contributions</title>
</rect>
<rect x="744" y="94" width="13" height="13" rx="2" fill="#161b22">
<title>2026-01-08: 0 contributions</title>
</rect>
<rect x="744" y="110" width="13" height="13" rx="2" fill="#161b22">
<title>2026-01-09: 0 contributions</title>
</rect>
<rect x="744" y="126" width="13" height="13" rx="2" fill="#161b22">
<title>2026-01-10: 0 contributions</title>
</rect>
<rect x="760" y="30" width="13" height="13" rx="2" fill="#161b22">
<title>2026-01-11: 0 contributions</title>
</rect>
<rect x="760" y="46" width="13" height="13" rx="2" fill="#161b22">
<title>2026-01-12: 0 contributions</title>
</rect>
<rect x="760" y="62" width="13" height="13" rx="2" fill="#161b22">
<title>2026-01-13: 0 contributions</title>
</rect>
<rect x="760" y="78" width="13" height="13" rx="2" fill="#161b22">
<title>2026-01-14: 0 contributions</title>
</rect>
<rect x="760" y="94" width="13" height="13" rx="2" fill="#161b22">
<title>2026-01-15: 0 contributions</title>
</rect>
<rect x="760" y="110" width="13" height="13" rx="2" fill="#161b22">
<title>2026-01-16: 0 contributions</title>
</rect>
<rect x="760" y="126" width="13" height="13" rx="2" fill="#FFBF00">
<title>2026-01-17: 4 contributions</title>
</rect>
<rect x="776" y="30" width="13" height="13" rx="2" fill="#FFBF00">
<title>2026-01-18: 1 contributions</title>
</rect>
<rect x="776" y="46" width="13" height="13" rx="2" fill="#161b22">
<title>2026-01-19: 0 contributions</title>
</rect>
<rect x="776" y="62" width="13" height="13" rx="2" fill="#161b22">
<title>2026-01-20: 0 contributions</title>
</rect>
<rect x="776" y="78" width="13" height="13" rx="2" fill="#FFBF00">
<title>2026-01-21: 1 contributions</title>
</rect>
<rect x="776" y="94" width="13" height="13" rx="2" fill="#161b22">
<title>2026-01-22: 0 contributions</title>
</rect>
<rect x="776" y="110" width="13" height="13" rx="2" fill="#161b22">
<title>2026-01-23: 0 contributions</title>
</rect>
<rect x="776" y="126" width="13" height="13" rx="2" fill="#161b22">
<title>2026-01-24: 0 contributions</title>
</rect>
<rect x="792" y="30" width="13" height="13" rx="2" fill="#161b22">
<title>2026-01-25: 0 contributions</title>
</rect>
<rect x="792" y="46" width="13" height="13" rx="2" fill="#161b22">
<title>2026-01-26: 0 contributions</title>
</rect>
<rect x="792" y="62" width="13" height="13" rx="2" fill="#FFBF00">
<title>2026-01-27: 1 contributions</title>
</rect>
<rect x="792" y="78" width="13" height="13" rx="2" fill="#161b22">
<title>2026-01-28: 0 contributions</title>
</rect>
<rect x="792" y="94" width="13" height="13" rx="2" fill="#FFBF00">
<title>2026-01-29: 1 contributions</title>
</rect>
<rect x="792" y="110" width="13" height="13" rx="2" fill="#161b22">
<title>2026-01-30: 0 contributions</title>
</rect>
<rect x="792" y="126" width="13" height="13" rx="2" fill="#FFBF00">
<title>2026-01-31: 2 contributions</title>
</rect>
<rect x="808" y="30" width="13" height="13" rx="2" fill="#FFBF00">
<title>2026-02-01: 2 contributions</title>
</rect>
<rect x="808" y="46" width="13" height="13" rx="2" fill="#161b22">
<title>2026-02-02: 0 contributions</title>
</rect>
<rect x="808" y="62" width="13" height="13" rx="2" fill="#161b22">
<title>2026-02-03: 0 contributions</title>
</rect>
<rect x="808" y="78" width="13" height="13" rx="2" fill="#161b22">
<title>2026-02-04: 0 contributions</title>
</rect>
<rect x="808" y="94" width="13" height="13" rx="2" fill="#FFBF00">
<title>2026-02-05: 3 contributions</title>
</rect>
<rect x="808" y="110" width="13" height="13" rx="2" fill="#161b22">
<title>2026-02-06: 0 contributions</title>
</rect>
<rect x="808" y="126" width="13" height="13" rx="2" fill="#FFBF00">
<title>2026-02-07: 6 contributions</title>
</rect>
<rect x="824" y="30" width="13" height="13" rx="2" fill="#161b22">
<title>2026-02-08: 0 contributions</title>
</rect>
<rect x="824" y="46" width="13" height="13" rx="2" fill="#161b22">
<title>2026-02-09: 0 contributions</title>
</rect>
<rect x="824" y="62" width="13" height="13" rx="2" fill="#161b22">
<title>2026-02-10: 0 contributions</title>
</rect>
<rect x="824" y="78" width="13" height="13" rx="2" fill="#161b22">
<title>2026-02-11: 0 contributions</title>
</rect>
<rect x="824" y="94" width="13" height="13" rx="2" fill="#FFBF00">
<title>2026-02-12: 1 contributions</title>
</rect>
<rect x="824" y="110" width="13" height="13" rx="2" fill="#161b22">
<title>2026-02-13: 0 contributions</title>
</rect>
<rect x="824" y="126" width="13" height="13" rx="2" fill="#161b22">
<title>2026-02-14: 0 contributions</title>
</rect>
<rect x="840" y="30" width="13" height="13" rx="2" fill="#161b22">
<title>2026-02-15: 0 contributions</title>
</rect>
<rect x="840" y="46" width="13" height="13" rx="2" fill="#FFBF00">
<title>2026-02-16: 2 contributions</title>
</rect>
<rect x="840" y="62" width="13" height="13" rx="2" fill="#FFBF00">
<title>2026-02-17: 2 contributions</title>
</rect>
<rect x="840" y="78" width="13" height="13" rx="2" fill="#161b22">
<title>2026-02-18: 0 contributions</title>
</rect>
<rect x="840" y="94" width="13" height="13" rx="2" fill="#FF8C00">
<title>2026-02-19: 17 contributions</title>
</rect>
<rect x="840" y="110" width="13" height="13" rx="2" fill="#FFBF00">
<title>2026-02-20: 7 contributions</title>
</rect>
<rect x="840" y="126" width="13" height="13" rx="2" fill="#FF8C00">
<title>2026-02-21: 9 contributions</title>
</rect>
<rect x="856" y="30" width="13" height="13" rx="2" fill="#FFBF00">
<title>2026-02-22: 1 contributions</title>
</rect>
<rect x="856" y="46" width="13" height="13" rx="2" fill="#161b22">
<title>2026-02-23: 0 contributions</title>
</rect>
<rect x="856" y="62" width="13" height="13" rx="2" fill="#161b22">
<title>2026-02-24: 0 contributions</title>
</rect>
<rect x="856" y="78" width="13" height="13" rx="2" fill="#161b22">
<title>2026-02-25: 0 contributions</title>
</rect>
<rect x="856" y="94" width="13" height="13" rx="2" fill="#161b22">
<title>2026-02-26: 0 contributions</title>
</rect>
<rect x="856" y="110" width="13" height="13" rx="2" fill="#FFBF00">
<title>2026-02-27: 5 contributions</title>
</rect>
<rect x="856" y="126" width="13" height="13" rx="2" fill="#FF0000">
<title>2026-02-28: 34 contributions</title>
</rect>
<rect x="872" y="30" width="13" height="13" rx="2" fill="#FF0000">
<title>2026-03-01: 32 contributions</title>
</rect>
<text x="40" y="157" fill="#8b949e" font-family="monospace" font-size="10">356 contributions in the last year</text>
<text x="708" y="157" fill="#8b949e" font-family="monospace" font-size="10">Less</text>
<rect x="738" y="147" width="13" height="13" rx="2" fill="#161b22"/>
<rect x="754" y="147" width="13" height="13" rx="2" fill="#FFBF00"/>
<rect x="770" y="147" width="13" height="13" rx="2" fill="#FF8C00"/>
<rect x="786" y="147" width="13" height="13" rx="2" fill="#FF4500"/>
<rect x="802" y="147" width="13" height="13" rx="2" fill="#FF0000"/>
<text x="820" y="157" fill="#8b949e" font-family="monospace" font-size="10">More</text>
</svg>